<svg width="859" height="777" viewBox="0 0 859 777" fill="none" xmlns="http://www.w3.org/2000/svg">
<rect width="606" height="375" rx="28" fill="white"/>
<rect x="253" y="402" width="606" height="375" rx="23" fill="white"/>
<line x1="178" y1="99" x2="178" y2="254" stroke="#6930C3" stroke-opacity="0.15" stroke-width="10"/>
<line x1="349" y1="275" x2="194" y2="275" stroke="#6930C3" stroke-opacity="0.15" stroke-width="10"/>
<line x1="532" y1="659" x2="377" y2="659" stroke="#6930C3" stroke-opacity="0.15" stroke-width="10"/>
<circle cx="177.5" cy="98.5" r="56.5" fill="#B49CDB"/>
<line x1="374" y1="493" x2="374" y2="648" stroke="#6930C3" stroke-opacity="0.15" stroke-width="10"/>
<line x1="374" y1="286" x2="374" y2="441" stroke="#6930C3" stroke-opacity="0.15" stroke-width="10"/>
<circle cx="177.5" cy="276.5" r="56.5" fill="#A9AADC"/>
<circle cx="368.5" cy="276.5" r="56.5" fill="#B3EEE5"/>
<circle cx="377.5" cy="486.5" r="56.5" fill="#A9AADC"/>
<circle cx="377.5" cy="661.5" r="56.5" fill="#B49CDB"/>
<circle cx="549.5" cy="661.5" r="56.5" fill="#B3EEE5"/>
<path d="M271.45 83.4295C268.705 83.7333 266.726 86.2047 267.03 88.9493C267.334 91.694 269.806 93.6726 272.55 93.3687L271.45 83.4295ZM486.5 271.399L491.27 272.899L491.319 272.742L491.358 272.582L486.5 271.399ZM506.426 576.497C508.357 578.471 511.523 578.505 513.497 576.574C515.471 574.643 515.505 571.477 513.574 569.503L506.426 576.497ZM282.891 92.1684C285.633 91.8432 287.592 89.3565 287.267 86.6143C286.942 83.8721 284.455 81.9128 281.713 82.238L282.891 92.1684ZM302.449 79.8871C299.702 80.172 297.707 82.6296 297.991 85.3763C298.276 88.123 300.734 90.1187 303.481 89.8337L302.449 79.8871ZM324.014 88.0301C326.769 87.8388 328.847 85.4505 328.656 82.6957C328.465 79.941 326.077 77.8628 323.322 78.0541L324.014 88.0301ZM344.327 77.0805C341.566 77.1383 339.375 79.4233 339.432 82.1841C339.49 84.945 341.775 87.1361 344.536 87.0783L344.327 77.0805ZM365.002 87.2735C367.761 87.392 370.093 85.2516 370.212 82.4927C370.331 79.7338 368.19 77.4012 365.431 77.2827L365.002 87.2735ZM386.558 79.0376C383.819 78.6892 381.316 80.6274 380.967 83.3668C380.619 86.1061 382.557 88.6093 385.297 88.9577L386.558 79.0376ZM405.199 92.5581C407.884 93.2056 410.585 91.5544 411.232 88.87C411.88 86.1855 410.229 83.4844 407.544 82.8369L405.199 92.5581ZM428.04 89.3209C425.479 88.2899 422.566 89.5309 421.535 92.0926C420.504 94.6544 421.745 97.5669 424.307 98.5978L428.04 89.3209ZM441.937 107.628C444.259 109.122 447.353 108.452 448.847 106.13C450.342 103.808 449.671 100.714 447.349 99.2193L441.937 107.628ZM464.305 113.033C462.381 111.052 459.215 111.006 457.234 112.93C455.254 114.854 455.208 118.019 457.132 120L464.305 113.033ZM469.125 135.137C470.698 137.407 473.813 137.972 476.083 136.399C478.352 134.827 478.918 131.712 477.345 129.442L469.125 135.137ZM487.844 146.434C486.53 144.005 483.496 143.101 481.067 144.414C478.638 145.728 477.734 148.762 479.048 151.191L487.844 146.434ZM486.784 168.212C487.734 170.805 490.606 172.137 493.199 171.187C495.791 170.237 497.123 167.365 496.174 164.772L486.784 168.212ZM501.497 184.344C501.012 181.626 498.414 179.816 495.696 180.301C492.977 180.787 491.168 183.385 491.653 186.103L501.497 184.344ZM493.269 204.565C493.272 207.327 495.512 209.563 498.274 209.56C501.035 209.557 503.271 207.316 503.269 204.555L493.269 204.565ZM501.817 224.616C502.194 221.88 500.282 219.357 497.547 218.98C494.811 218.602 492.288 220.514 491.91 223.249L501.817 224.616ZM488.46 241.967C487.864 244.664 489.567 247.333 492.263 247.928C494.96 248.524 497.628 246.821 498.224 244.125L488.46 241.967ZM493.68 263.163C494.344 260.482 492.71 257.771 490.03 257.107C487.349 256.442 484.638 258.076 483.974 260.757L493.68 263.163ZM479.291 279.723C478.732 282.427 480.471 285.073 483.175 285.632C485.879 286.191 488.525 284.453 489.084 281.748L479.291 279.723ZM485.899 300.558C486.289 297.824 484.389 295.292 481.655 294.902C478.921 294.512 476.389 296.413 475.999 299.146L485.899 300.558ZM473.587 318.47C473.287 321.215 475.269 323.683 478.014 323.983C480.759 324.283 483.228 322.301 483.528 319.556L473.587 318.47ZM481.686 338.709C481.917 335.958 479.873 333.54 477.121 333.31C474.369 333.079 471.952 335.123 471.721 337.875L481.686 338.709ZM470.316 357.321C470.148 360.077 472.246 362.448 475.002 362.616C477.759 362.784 480.129 360.686 480.297 357.93L470.316 357.321ZM479.338 377.146C479.445 374.387 477.295 372.063 474.536 371.956C471.776 371.849 469.453 373.999 469.346 376.758L479.338 377.146ZM468.81 396.218C468.766 398.979 470.968 401.254 473.73 401.298C476.491 401.342 478.765 399.139 478.809 396.378L468.81 396.218ZM478.734 415.625C478.71 412.864 476.453 410.645 473.691 410.668C470.93 410.692 468.711 412.95 468.735 415.711L478.734 415.625ZM469.164 435.202C469.264 437.961 471.581 440.118 474.341 440.018C477.101 439.919 479.257 437.601 479.158 434.841L469.164 435.202ZM480.145 454.022C479.958 451.267 477.573 449.185 474.818 449.372C472.063 449.559 469.981 451.944 470.168 454.699L480.145 454.022ZM471.844 474.157C472.135 476.903 474.596 478.894 477.342 478.603C480.088 478.313 482.079 475.851 481.789 473.105L471.844 474.157ZM484.231 492.096C483.812 489.367 481.26 487.494 478.53 487.912C475.801 488.331 473.928 490.883 474.346 493.613L484.231 492.096ZM477.892 512.96C478.476 515.659 481.138 517.374 483.837 516.789C486.536 516.205 488.25 513.544 487.666 510.845L477.892 512.96ZM492.396 529.178C491.588 526.538 488.793 525.052 486.152 525.86C483.511 526.668 482.026 529.463 482.834 532.104L492.396 529.178ZM489.772 550.834C490.902 553.354 493.86 554.481 496.38 553.352C498.9 552.222 500.027 549.264 498.897 546.744L489.772 550.834ZM507.885 562.688C506.272 560.447 503.147 559.938 500.906 561.552C498.665 563.165 498.157 566.29 499.77 568.531L507.885 562.688ZM272.55 93.3687C275.751 93.0143 279.217 92.6042 282.891 92.1684L281.713 82.238C278.032 82.6746 274.605 83.0801 271.45 83.4295L272.55 93.3687ZM303.481 89.8337C310.004 89.157 316.889 88.5249 324.014 88.0301L323.322 78.0541C316.055 78.5588 309.053 79.202 302.449 79.8871L303.481 89.8337ZM344.536 87.0783C351.296 86.9366 358.148 86.9791 365.002 87.2735L365.431 77.2827C358.335 76.9779 351.268 76.935 344.327 77.0805L344.536 87.0783ZM385.297 88.9577C392.066 89.8187 398.729 90.9974 405.199 92.5581L407.544 82.8369C400.672 81.1791 393.642 79.9387 386.558 79.0376L385.297 88.9577ZM424.307 98.5978C430.538 101.105 436.445 104.093 441.937 107.628L447.349 99.2193C441.269 95.3057 434.791 92.0376 428.04 89.3209L424.307 98.5978ZM457.132 120C459.383 122.318 461.516 124.79 463.52 127.425L471.48 121.373C469.23 118.412 466.833 115.636 464.305 113.033L457.132 120ZM463.52 127.425C465.507 130.039 467.374 132.609 469.125 135.137L477.345 129.442C475.506 126.788 473.553 124.099 471.48 121.373L463.52 127.425ZM479.048 151.191C482.227 157.068 484.774 162.726 486.784 168.212L496.174 164.772C493.988 158.806 491.238 152.709 487.844 146.434L479.048 151.191ZM491.653 186.103C492.771 192.356 493.262 198.481 493.269 204.565L503.269 204.555C503.261 197.931 502.726 191.219 501.497 184.344L491.653 186.103ZM491.91 223.249C491.062 229.399 489.866 235.604 488.46 241.967L498.224 244.125C499.666 237.6 500.92 231.117 501.817 224.616L491.91 223.249ZM483.974 260.757C483.205 263.859 482.421 267.014 481.642 270.217L491.358 272.582C492.131 269.404 492.909 266.272 493.68 263.163L483.974 260.757ZM481.73 269.9C480.92 272.476 480.102 275.803 479.291 279.723L489.084 281.748C489.862 277.99 490.602 275.025 491.27 272.899L481.73 269.9ZM475.999 299.146C475.163 305.016 474.349 311.496 473.587 318.47L483.528 319.556C484.279 312.68 485.079 306.308 485.899 300.558L475.999 299.146ZM471.721 337.875C471.198 344.119 470.724 350.622 470.316 357.321L480.297 357.93C480.701 351.306 481.169 344.879 481.686 338.709L471.721 337.875ZM469.346 376.758C469.098 383.143 468.915 389.645 468.81 396.218L478.809 396.378C478.913 389.884 479.093 383.458 479.338 377.146L469.346 376.758ZM468.735 415.711C468.79 422.196 468.93 428.707 469.164 435.202L479.158 434.841C478.927 428.443 478.789 422.024 478.734 415.625L468.735 415.711ZM470.168 454.699C470.613 461.258 471.167 467.759 471.844 474.157L481.789 473.105C481.126 466.843 480.582 460.467 480.145 454.022L470.168 454.699ZM474.346 493.613C475.365 500.25 476.542 506.719 477.892 512.96L487.666 510.845C486.363 504.824 485.222 498.557 484.231 492.096L474.346 493.613ZM482.834 532.104C484.867 538.751 487.17 545.029 489.772 550.834L498.897 546.744C496.492 541.378 494.329 535.498 492.396 529.178L482.834 532.104ZM499.77 568.531C501.843 571.41 504.059 574.077 506.426 576.497L513.574 569.503C511.593 567.478 509.697 565.204 507.885 562.688L499.77 568.531Z" fill="#C4C4C4"/>
<path d="M500 592.45L528 593.353" stroke="#C4C4C4" stroke-width="10" stroke-linecap="round"/>
<line x1="528" y1="562" x2="528" y2="593" stroke="#C4C4C4" stroke-width="10" stroke-linecap="round"/>
</svg>
