<svg width="954" height="447" viewBox="0 0 954 447" fill="none" xmlns="http://www.w3.org/2000/svg">
<path d="M502.709 433.913C502.709 441.142 508.571 447 515.805 447C523.037 447 528.902 441.142 528.902 433.913L502.709 433.913ZM319.265 315.342C319.265 322.569 325.127 328.43 332.361 328.43C339.593 328.43 345.458 322.569 345.458 315.342L319.265 315.342ZM-3.90867e-06 89.4199C-4.22467e-06 96.6493 5.86444 102.507 13.0962 102.507C20.3279 102.507 26.1924 96.6493 26.1924 89.4199L-3.90867e-06 89.4199ZM237.11 329.029C244.344 329.029 250.206 323.168 250.206 315.942C250.206 308.712 244.344 302.854 237.11 302.854L237.11 329.029ZM940.904 128.299C948.135 128.299 954 122.439 954 115.212C954 107.983 948.135 102.125 940.904 102.125L940.904 128.299ZM612.82 420.826C605.585 420.826 599.723 426.686 599.723 433.913C599.723 441.142 605.585 447 612.82 447L612.82 420.826ZM528.902 433.913L528.902 232.011L502.709 232.011L502.709 433.913L528.902 433.913ZM528.902 232.011C528.902 173.956 482.038 126.776 424.082 126.776L424.082 152.951C467.441 152.951 502.709 188.281 502.709 232.011L528.902 232.011ZM424.082 126.776C366.129 126.776 319.265 173.956 319.265 232.011L345.458 232.011C345.458 188.281 380.726 152.951 424.082 152.951L424.082 126.776ZM319.265 232.011L319.265 315.342L345.458 315.342L345.458 232.011L319.265 232.011ZM26.1924 89.4199L26.1924 77.3848L-3.3826e-06 77.3848L-3.90867e-06 89.4199L26.1924 89.4199ZM26.1924 77.3848C26.1924 49.1164 49.1606 26.1744 77.5061 26.1744L77.5061 -3.83128e-05C34.7234 -4.01829e-05 -1.51379e-06 34.6314 -3.3826e-06 77.3848L26.1924 77.3848ZM77.5061 26.1744C105.867 26.1744 128.835 49.119 128.835 77.3848L155.028 77.3848C155.028 34.6314 120.302 -3.64421e-05 77.5061 -3.83128e-05L77.5061 26.1744ZM128.835 77.3848L128.835 220.939L155.028 220.939L155.028 77.3848L128.835 77.3848ZM128.835 220.939C128.835 280.648 177.323 329.029 237.11 329.029L237.11 302.854C191.76 302.854 155.028 266.166 155.028 220.939L128.835 220.939ZM940.904 102.125L868.518 102.125L868.518 128.299L940.904 128.299L940.904 102.125ZM868.518 102.125C773.131 102.125 695.782 179.314 695.782 274.562L721.974 274.562C721.974 193.796 787.568 128.299 868.518 128.299L868.518 102.125ZM695.782 274.562L695.782 338.03L721.974 338.03L721.974 274.562L695.782 274.562ZM695.782 338.03C695.782 383.744 658.651 420.826 612.82 420.826L612.82 447C673.088 447 721.974 398.226 721.974 338.03L695.782 338.03Z" fill="#5E60CE" fill-opacity="0.3"/>
<circle cx="273.5" cy="383.5" r="56.5" fill="#B49CDB"/>
<circle cx="672.5" cy="56.5" r="56.5" fill="#B3EEE5"/>
</svg>
